<?xml version="1.0" standalone="no"?>
<!DOCTYPE svg PUBLIC "-//W3C//DTD SVG 20010904//EN"
 "http://www.w3.org/TR/2001/REC-SVG-20010904/DTD/svg10.dtd">
<svg version="1.0" xmlns="http://www.w3.org/2000/svg"
 width="1024.000000pt" height="1024.000000pt" viewBox="0 0 1024.000000 1024.000000"
 preserveAspectRatio="xMidYMid meet">
<metadata>
Created by potrace 1.16, written by Peter Selinger 2001-2019
</metadata>
<g transform="translate(0.000000,1024.000000) scale(0.100000,-0.100000)"
fill="#000000" stroke="none">
<path d="M4910 8814 c-407 -35 -680 -89 -989 -196 -404 -139 -769 -340 -1108
-609 -164 -131 -451 -418 -581 -581 -447 -564 -711 -1208 -793 -1938 -17 -149
-17 -601 0 -750 82 -730 346 -1374 793 -1938 130 -163 417 -450 581 -581 563
-446 1208 -710 1937 -792 65 -8 228 -13 375 -13 272 0 394 9 630 49 609 104
1196 369 1690 761 150 120 451 422 571 574 454 573 715 1211 796 1945 17 155
17 585 0 740 -81 734 -342 1372 -796 1945 -120 152 -421 454 -571 574 -551
438 -1196 707 -1900 791 -123 15 -539 27 -635 19z m2143 -1493 c104 -7 108 -8
143 -42 70 -67 69 -60 68 -399 0 -312 -21 -624 -49 -760 -8 -36 -18 -102 -24
-146 -22 -172 -102 -465 -212 -769 -44 -121 -206 -437 -285 -555 -213 -319
-449 -541 -784 -736 -47 -27 -98 -57 -115 -66 -196 -115 -449 -208 -765 -283
-58 -14 -79 -27 -80 -47 0 -9 90 -78 101 -78 5 0 35 -20 66 -44 138 -105 179
-186 137 -269 -26 -51 -53 -75 -108 -94 -45 -16 -92 -18 -421 -18 -306 0 -393
3 -505 19 -214 29 -367 69 -486 127 -45 21 -88 39 -97 39 -32 0 -53 -46 -66
-146 -17 -138 -26 -166 -67 -216 -50 -59 -75 -71 -146 -66 -102 7 -158 73
-158 188 0 64 6 102 56 363 36 191 38 182 -66 337 -97 144 -172 309 -206 449
-26 108 -41 321 -32 466 7 118 35 352 44 366 2 3 13 50 25 105 43 203 197 561
348 812 88 148 188 298 224 340 18 20 40 49 49 63 20 32 228 260 278 305 116
104 273 221 390 290 97 57 395 205 455 227 22 7 83 30 136 50 210 80 401 123
698 157 52 6 99 14 104 17 23 14 1177 26 1350 14z"/>
<path d="M5785 6959 c-71 -5 -161 -15 -200 -23 -38 -8 -102 -20 -141 -25 -113
-17 -367 -86 -499 -136 -137 -51 -320 -143 -425 -211 -41 -26 -85 -54 -97 -60
-67 -37 -217 -167 -365 -315 -239 -241 -313 -343 -454 -623 -122 -241 -178
-391 -240 -645 -46 -189 -58 -316 -50 -531 5 -152 10 -188 35 -274 31 -107 59
-148 89 -130 17 10 54 77 101 185 57 129 209 376 295 479 25 30 70 87 99 126
77 99 278 291 431 409 107 82 168 124 261 177 39 22 93 55 120 72 72 46 252
133 306 147 98 26 204 -41 220 -140 10 -64 2 -90 -44 -145 -30 -37 -68 -61
-205 -130 -92 -47 -192 -102 -223 -123 -31 -21 -108 -72 -172 -115 -230 -152
-514 -460 -654 -708 -20 -36 -50 -85 -66 -109 -16 -24 -47 -85 -67 -135 -21
-50 -53 -122 -73 -161 -58 -116 -71 -192 -39 -230 43 -51 173 -119 313 -165
95 -31 342 -69 373 -57 42 16 -3 72 -125 156 -87 59 -120 157 -81 243 36 82
99 104 337 118 334 20 653 80 851 159 27 10 83 32 124 49 72 28 295 155 369
210 109 80 340 306 394 385 16 23 37 51 47 62 10 11 60 90 112 175 114 189
193 379 279 669 40 136 85 337 108 486 37 237 71 600 71 763 0 75 -2 85 -25
107 l-24 25 -468 -1 c-257 -1 -526 -6 -598 -10z"/>
</g>
</svg>
